<svg width="29" height="35" viewBox="0 0 29 35" fill="none" xmlns="http://www.w3.org/2000/svg">
<path d="M13.999 0H6.99902V7H13.999V0Z" fill="white" fill-opacity="0.4"/>
<path d="M7 6.99902H0V13.999H7V6.99902Z" fill="white" fill-opacity="0.4"/>
<path d="M7 28.001H0V35.001H7V28.001Z" fill="white" fill-opacity="0.4"/>
<path d="M7 20.9995H0V27.9995H7V20.9995Z" fill="white" fill-opacity="0.4"/>
<path d="M28.0015 20.9995H21.0015V27.9995H28.0015V20.9995Z" fill="white" fill-opacity="0.4"/>
<path d="M13.999 14.0005H6.99902V21.0005H13.999V14.0005Z" fill="white" fill-opacity="0.4"/>
<path d="M20.998 14.0005H13.998V21.0005H20.998V14.0005Z" fill="white" fill-opacity="0.4"/>
<path d="M28.0015 28.001H21.0015V35.001H28.0015V28.001Z" fill="white" fill-opacity="0.4"/>
<path d="M28.0015 14.0005H21.0015V21.0005H28.0015V14.0005Z" fill="white" fill-opacity="0.4"/>
<path d="M28.0015 6.99902H21.0015V13.999H28.0015V6.99902Z" fill="white" fill-opacity="0.4"/>
<path d="M7 14.0005H0V21.0005H7V14.0005Z" fill="white" fill-opacity="0.4"/>
<path d="M20.998 0H13.998V7H20.998V0Z" fill="white" fill-opacity="0.4"/>
</svg>
