<svg width="40" height="40" viewBox="0 0 40 40" fill="none" xmlns="http://www.w3.org/2000/svg">
<mask id="mask0_20_113" style="mask-type:alpha" maskUnits="userSpaceOnUse" x="8" y="8" width="24" height="24">
<rect x="8" y="8" width="24" height="24" fill="#D9D9D9"/>
</mask>
<g mask="url(#mask0_20_113)">
<path d="M19 30.95V28.95C16.9167 28.7167 15.1292 27.8542 13.6375 26.3625C12.1458 24.8709 11.2833 23.0834 11.05 21H9.04999V19H11.05C11.2833 16.9167 12.1458 15.1292 13.6375 13.6375C15.1292 12.1459 16.9167 11.2834 19 11.05V9.05005H21V11.05C23.0833 11.2834 24.8708 12.1459 26.3625 13.6375C27.8542 15.1292 28.7167 16.9167 28.95 19H30.95V21H28.95C28.7167 23.0834 27.8542 24.8709 26.3625 26.3625C24.8708 27.8542 23.0833 28.7167 21 28.95V30.95H19ZM20 27C21.9333 27 23.5833 26.3167 24.95 24.95C26.3167 23.5834 27 21.9334 27 20C27 18.0667 26.3167 16.4167 24.95 15.05C23.5833 13.6834 21.9333 13 20 13C18.0667 13 16.4167 13.6834 15.05 15.05C13.6833 16.4167 13 18.0667 13 20C13 21.9334 13.6833 23.5834 15.05 24.95C16.4167 26.3167 18.0667 27 20 27ZM20 24C18.9 24 17.9583 23.6084 17.175 22.825C16.3917 22.0417 16 21.1 16 20C16 18.9 16.3917 17.9584 17.175 17.175C17.9583 16.3917 18.9 16 20 16C21.1 16 22.0417 16.3917 22.825 17.175C23.6083 17.9584 24 18.9 24 20C24 21.1 23.6083 22.0417 22.825 22.825C22.0417 23.6084 21.1 24 20 24ZM20 22C20.55 22 21.0208 21.8042 21.4125 21.4125C21.8042 21.0209 22 20.55 22 20C22 19.45 21.8042 18.9792 21.4125 18.5875C21.0208 18.1959 20.55 18 20 18C19.45 18 18.9792 18.1959 18.5875 18.5875C18.1958 18.9792 18 19.45 18 20C18 20.55 18.1958 21.0209 18.5875 21.4125C18.9792 21.8042 19.45 22 20 22Z" fill="#FF4A16"/>
</g>
</svg>
